Coordinates
version=1
nRows=9
nColumns=53
inDegrees=yes

Units are S.I. units (second, meters, Newtons, ...)
Angles are in degrees.

endheader
time	pelvis_tilt	pelvis_list	pelvis_rot	pelvis_tx	pelvis_ty	pelvis_tz	hip_flex_r	hip_add_r	hip_rot_r	pf_flex_r	pf_rot_r	pf_tilt_r	pf_tx_r	pf_ty_r	pf_tz_r	knee_flex_r	knee_add_r	knee_rot_r	knee_tx_r	knee_ty_r	knee_tz_r	ankle_flex_r	subt_angle_r	mtp_angle_r	hip_flex_l	hip_add_l	hip_rot_l	pf_l_r3	pf_l_tx	pf_l_ty	knee_flex_l	ankle_flex_l	subt_angle_l	mtp_angle_l	lumbar_ext	lumbar_latbend	lumbar_rot	neck_ext	neck_latbend	neck_rot	arm_add_r	arm_flex_r	arm_rot_r	elbow_flex_r	pro_sup_r	wrist_flex_r	arm_add_l	arm_flex_l	arm_rot_l	elbow_flex_l	pro_sup_l	wrist_flex_l
      1.18000000	     -5.37588878	      1.58729428	      0.07081391	     -0.08350915	      0.89332923	     -0.23010934	     28.17369027	      0.63136010	      1.17140776	      0.00000000	      0.00000000	      0.00000000	      0.05300000	      0.00500000	      0.00400000	      3.25767968	     -1.79890189	    -16.17204453	      0.01998892	     -0.00815053	      0.00286474	      2.09338965	      1.31476031	      0.00000000	     -9.67118554	     -2.52090752	     -4.95231593	      0.06513700	      0.04435000	     -0.41871200	     -0.05179764	      0.21354172	      0.11966211	      0.00000000	    -11.75755192	     -2.96664430	     -4.30406394	      0.00000000	      0.00000000	      0.00000000	    -15.61798810	     12.46114433	     30.28760352	      8.13100351	     66.61674443	      0.00000000	    -31.88635784	     40.97899473	     21.23843560	     36.26618356	     56.43978245	      0.00000000
      1.18500000	     -5.61957810	      1.76815675	      0.25350344	     -0.07696088	      0.89158555	     -0.23012618	     28.35313315	      0.52318437	      1.33231801	      0.00000000	      0.00000000	      0.00000000	      0.05300000	      0.00500000	      0.00400000	      1.70550746	     -2.05787298	    -15.85088268	      0.02076133	     -0.00904568	      0.00357682	      2.31726602	      1.53859602	      0.00000000	     -9.95304496	     -2.68307838	     -5.07168437	      0.06513700	      0.04435000	     -0.41871200	     -0.05502077	      0.21404364	      0.11923857	      0.00000000	    -11.39302245	     -3.13049178	     -4.56041945	      0.00000000	      0.00000000	      0.00000000	    -15.58169823	     12.38160247	     30.29736142	      8.10184271	     66.61514068	      0.00000000	    -32.25486351	     41.51267972	     20.99264826	     36.36198830	     56.44144323	      0.00000000
      1.19000000	     -5.78787789	      1.94370360	      0.44445859	     -0.07058821	      0.88990634	     -0.23011748	     28.45841897	      0.39670850	      1.46671439	      0.00000000	      0.00000000	      0.00000000	      0.05300000	      0.00500000	      0.00400000	      0.23533102	     -2.29749986	    -15.47086899	      0.02141580	     -0.00991579	      0.00403986	      2.39853893	      1.84579382	      0.00000000	    -10.26213063	     -2.81741053	     -5.29249730	      0.06513700	      0.04435000	     -0.41871200	     -0.05617488	      0.21594089	      0.11883744	      0.00000000	    -11.24927804	     -3.27051390	     -4.80207736	      0.00000000	      0.00000000	      0.00000000	    -15.55453350	     12.25098496	     30.30758643	      8.05309093	     66.61215211	      0.00000000	    -32.70057248	     42.07727102	     20.69072759	     36.46212358	     56.44340960	      0.00000000
      1.19500000	     -5.83216600	      2.14038175	      0.71039083	     -0.06422714	      0.88839418	     -0.23016152	     28.48903776	      0.20642236	      1.47182746	      0.00000000	      0.00000000	      0.00000000	      0.05300000	      0.00500000	      0.00400000	     -1.10977784	     -2.56854291	    -14.98838338	      0.02132115	     -0.01079722	      0.00430082	      2.26290006	      2.30270609	      0.00000000	    -10.70941287	     -2.96312747	     -5.68237098	      0.06513700	      0.04435000	     -0.41871200	     -0.05760553	      0.22113328	      0.11837004	      0.00000000	    -11.42180647	     -3.45068537	     -5.05167267	      0.00000000	      0.00000000	      0.00000000	    -15.48121682	     12.05313822	     30.33237638	      7.97821582	     66.60922690	      0.00000000	    -33.37359156	     42.72173525	     20.14370637	     36.63453679	     56.44649461	      0.00000000
      1.20000000	     -5.95020398	      2.27713711	      0.93122663	     -0.05774172	      0.88673958	     -0.23016761	     28.57612224	      0.11994341	      1.43323853	      0.00000000	      0.00000000	      0.00000000	      0.05300000	      0.00500000	      0.00400000	     -2.33384193	     -2.75775897	    -14.55804679	      0.02172001	     -0.01155897	      0.00504837	      2.20905388	      2.61833641	      0.00000000	    -11.04629246	     -3.04575675	     -5.86977837	      0.06513700	      0.04435000	     -0.41871200	     -0.05771835	      0.22548108	      0.11873274	      0.00000000	    -11.35206145	     -3.53535993	     -5.30500731	      0.00000000	      0.00000000	      0.00000000	    -15.48122673	     11.97001761	     30.35105786	      7.93034377	     66.60960380	      0.00000000	    -33.77947324	     43.21833821	     19.70678663	     36.84395036	     56.45031047	      0.00000000
      1.20500000	     -6.01562798	      2.41408305	      1.15939694	     -0.05121459	      0.88511998	     -0.23017584	     28.66167703	     -0.01367199	      1.30374855	      0.00000000	      0.00000000	      0.00000000	      0.05300000	      0.00500000	      0.00400000	     -3.39845866	     -2.95489988	    -14.08232392	      0.02169450	     -0.01227424	      0.00509277	      2.08433052	      2.92168940	      0.00000000	    -11.43853304	     -3.11848493	     -6.10170102	      0.06513700	      0.04435000	     -0.41871200	     -0.05741343	      0.23168929	      0.12026353	      0.00000000	    -11.35863709	     -3.64512971	     -5.54580724	      0.00000000	      0.00000000	      0.00000000	    -15.46123576	     11.87805428	     30.37767313	      7.88101450	     66.61198208	      0.00000000	    -34.24901128	     43.70272282	     19.14775237	     37.10723655	     56.45517552	      0.00000000
      1.21000000	     -6.09699283	      2.53898582	      1.37845136	     -0.04462621	      0.88346814	     -0.23016602	     28.76907309	     -0.10902127	      1.18933445	      0.00000000	      0.00000000	      0.00000000	      0.05300000	      0.00500000	      0.00400000	     -4.30818566	     -3.09363234	    -13.63299572	      0.02179267	     -0.01285784	      0.00555010	      1.98664002	      3.14238940	      0.00000000	    -11.78634786	     -3.18002725	     -6.27043140	      0.06513700	      0.04435000	     -0.41871200	     -0.05608300	      0.23767173	      0.12255800	      0.00000000	    -11.32871868	     -3.70976806	     -5.80563822	      0.00000000	      0.00000000	      0.00000000	    -15.45537456	     11.80361493	     30.40248280	      7.83905100	     66.61582314	      0.00000000	    -34.62983125	     44.11340641	     18.61786479	     37.38245432	     56.46025646	      0.00000000
      1.21500000	     -6.19121574	      2.62669977	      1.56249679	     -0.03789985	      0.88174383	     -0.23008539	     28.86928679	     -0.17990903	      1.15486418	      0.00000000	      0.00000000	      0.00000000	      0.05300000	      0.00500000	      0.00400000	     -5.05153326	     -3.17098476	    -13.33972260	      0.02233104	     -0.01324135	      0.00590624	      1.96116512	      3.28023330	      0.00000000	    -12.11441523	     -3.19589119	     -6.35388521	      0.06513700	      0.04435000	     -0.41871200	     -0.05418237	      0.24129714	      0.12397600	      0.00000000	    -11.13533968	     -3.76482126	     -6.01275007	      0.00000000	      0.00000000	      0.00000000	    -15.48316028	     11.78269410	     30.41279585	      7.81533858	     66.61819297	      0.00000000	    -34.87255377	     44.48994885	     18.30937406	     37.56110934	     56.46385179	      0.00000000
      1.22000000	     -6.25196380	      2.74041063	      1.79434721	     -0.03119720	      0.88007967	     -0.23003363	     28.96491050	     -0.29120452	      1.09504752	      0.00000000	      0.00000000	      0.00000000	      0.05300000	      0.00500000	      0.00400000	     -5.68780015	     -3.28099156	    -13.00396634	      0.02236678	     -0.01350869	      0.00599593	      1.86010782	      3.44128183	      0.00000000	    -12.45394447	     -3.22678670	     -6.52116851	      0.06513700	      0.04435000	     -0.41871200	     -0.05162565	      0.24660846	      0.12597048	      0.00000000	    -11.11137862	     -3.82314549	     -6.24793490	      0.00000000	      0.00000000	      0.00000000	    -15.47700118	     11.68617286	     30.42497640	      7.77756069	     66.61980747	      0.00000000	    -35.20431159	     44.90363724	     17.93119024	     37.74398011	     56.46775594	      0.00000000
